<svg xmlns="http://www.w3.org/2000/svg" viewBox="0 0 171.67 52.00" data-guides="{&quot;vertical&quot;:[],&quot;horizontal&quot;:[]}"><defs/><path fill="#2A5275" stroke="none" fill-opacity="1" stroke-width="1" stroke-opacity="1" clip-rule="evenodd" fill-rule="evenodd" id="tSvg19017f22821" title="Path 1" d="M158.733 32.0333C160.782 32.0333 162.831 32.0333 164.88 32.0333C166.7983 35.878 168.7167 39.7226 170.635 43.5673C169.2387 43.5673 167.8423 43.5673 166.446 43.5673C166.0807 42.92 165.7153 42.2728 165.35 41.6255C162.9747 41.6255 160.5993 41.6255 158.224 41.6255C157.8587 42.2728 157.4933 42.92 157.128 43.5673C155.7317 43.5673 154.3353 43.5673 152.939 43.5673C154.8703 39.7226 156.8017 35.878 158.733 32.0333ZM128.706 34.7517C128.706 35.0365 128.706 35.3213 128.706 35.6061C128.706 37.3148 128.706 39.0236 128.706 40.7323C128.706 41.6773 128.706 42.6223 128.706 43.5673C129.9067 43.5673 131.1073 43.5673 132.308 43.5673C132.308 42.6223 132.308 41.6773 132.308 40.7323C132.308 38.2339 132.308 35.7356 132.308 33.2372C132.308 32.8359 132.308 32.4346 132.308 32.0333C130.3507 32.0333 128.3933 32.0333 126.436 32.0333C124.387 34.8812 122.338 37.7291 120.289 40.577C120.25 40.6935 120.211 40.7712 120.133 40.8877C120.133 40.59 120.133 40.2922 120.133 39.9945C120.133 38.6223 120.133 37.2502 120.133 35.878C120.133 34.5964 120.133 33.3149 120.133 32.0333C118.9323 32.0333 117.7317 32.0333 116.531 32.0333C116.531 33.3149 116.531 34.5964 116.531 35.878C116.531 38.1563 116.531 40.4346 116.531 42.7129C116.531 42.9977 116.531 43.2825 116.531 43.5673C118.4883 43.5673 120.4457 43.5673 122.403 43.5673C124.452 40.7194 126.501 37.8715 128.55 35.0236C128.628 34.9459 128.667 34.8294 128.706 34.7517ZM162.1 34.6352C161.9173 34.6352 161.7347 34.6352 161.552 34.6352C160.8997 35.9685 160.2473 37.3019 159.595 38.6352C161.0693 38.6352 162.5437 38.6352 164.018 38.6352C163.3787 37.3019 162.7393 35.9685 162.1 34.6352ZM136.34 32.0333C137.5407 32.0333 138.7413 32.0333 139.942 32.0333C139.942 33.3796 139.942 34.7258 139.942 36.0721C140.5683 36.0721 141.1947 36.0721 141.821 36.0721C143.1783 34.7258 144.5357 33.3796 145.893 32.0333C147.537 32.0333 149.181 32.0333 150.825 32.0333C148.8807 33.8715 146.9363 35.7097 144.992 37.5479C147.1843 39.5673 149.3767 41.5867 151.569 43.6061C149.8333 43.6061 148.0977 43.6061 146.362 43.6061C144.8483 42.1045 143.3347 40.6029 141.821 39.1013C141.1947 39.1013 140.5683 39.1013 139.942 39.1013C139.942 40.6029 139.942 42.1045 139.942 43.6061C138.7413 43.6061 137.5407 43.6061 136.34 43.6061C136.34 39.7485 136.34 35.8909 136.34 32.0333ZM98.287 32.0333C99.4877 32.0333 100.6883 32.0333 101.889 32.0333C101.889 33.3796 101.889 34.7258 101.889 36.0721C104.473 36.0721 107.057 36.0721 109.641 36.0721C109.641 34.7258 109.641 33.3796 109.641 32.0333C110.8413 32.0333 112.0417 32.0333 113.242 32.0333C113.242 35.878 113.242 39.7226 113.242 43.5673C112.0417 43.5673 110.8413 43.5673 109.641 43.5673C109.641 42.0657 109.641 40.564 109.641 39.0624C107.057 39.0624 104.473 39.0624 101.889 39.0624C101.889 40.564 101.889 42.0657 101.889 43.5673C100.6883 43.5673 99.4877 43.5673 98.287 43.5673C98.287 39.7226 98.287 35.878 98.287 32.0333ZM80.1615 31.9945C81.9362 33.8845 83.711 35.7744 85.4857 37.6644C83.711 39.632 81.9362 41.5997 80.1615 43.5673C81.7666 43.5673 83.3717 43.5673 84.9768 43.5673C86.1513 42.2728 87.3257 40.9783 88.5002 39.6838C89.6747 40.9783 90.8491 42.2728 92.0236 43.5673C93.6287 43.5673 95.2339 43.5673 96.839 43.5673C95.0642 41.5997 93.2895 39.632 91.5147 37.6644C93.2895 35.7744 95.0642 33.8845 96.839 31.9945C95.1817 31.9945 93.5243 31.9945 91.867 31.9945C90.7447 33.2372 89.6225 34.4799 88.5002 35.7226C87.3779 34.4799 86.2557 33.2372 85.1334 31.9945C83.4761 31.9945 81.8188 31.9945 80.1615 31.9945ZM65.6764 43.5673C65.6764 39.7097 65.6764 35.8521 65.6764 31.9945C69.8653 31.9945 74.0543 31.9945 78.2432 31.9945C78.2432 32.9265 78.2432 33.8586 78.2432 34.7906C75.2548 34.7906 72.2665 34.7906 69.2781 34.7906C69.2781 35.3343 69.2781 35.8779 69.2781 36.4216C72.136 36.4216 74.9938 36.4216 77.8517 36.4216C77.8517 37.3537 77.8517 38.2857 77.8517 39.2178C74.9938 39.2178 72.136 39.2178 69.2781 39.2178C69.2781 39.7485 69.2781 40.2793 69.2781 40.81C72.2665 40.81 75.2548 40.81 78.2432 40.81C78.2432 41.742 78.2432 42.6741 78.2432 43.6061C74.0543 43.6061 69.8653 43.6061 65.6764 43.6061C65.6764 43.5932 65.6764 43.5802 65.6764 43.5673ZM49.6645 34.9848C49.6645 33.988 49.6645 32.9913 49.6645 31.9945C54.2841 31.9945 58.9036 31.9945 63.5232 31.9945C63.5232 32.9913 63.5232 33.988 63.5232 34.9848C61.8137 34.9848 60.1042 34.9848 58.3947 34.9848C58.3947 37.8456 58.3947 40.7065 58.3947 43.5673C57.1941 43.5673 55.9936 43.5673 54.793 43.5673C54.793 40.7065 54.793 37.8456 54.793 34.9848C53.0835 34.9848 51.374 34.9848 49.6645 34.9848Z"/><path fill="#4878A6" stroke="none" fill-opacity="1" stroke-width="1" stroke-opacity="1" clip-rule="evenodd" fill-rule="evenodd" id="tSvg3709679cf8" title="Path 2" d="M149.964 14.8683C149.964 13.3667 149.964 11.865 149.964 10.3634C156.8673 10.3634 163.7707 10.3634 170.674 10.3634C170.674 11.8521 170.674 13.3407 170.674 14.8294C168.1163 14.8294 165.5587 14.8294 163.001 14.8294C163.001 19.1013 163.001 23.3731 163.001 27.645C161.213 27.645 159.425 27.645 157.637 27.645C157.637 23.3731 157.637 19.1013 157.637 14.8294C155.0793 14.8294 152.5217 14.8294 149.964 14.8294C149.964 14.8424 149.964 14.8553 149.964 14.8683ZM71.5487 10.4411C71.5487 16.2016 71.5487 21.9621 71.5487 27.7226C73.3365 27.7226 75.1243 27.7226 76.9121 27.7226C76.9121 23.6838 76.9121 19.6449 76.9121 15.6061C79.261 19.6449 81.61 23.6838 83.9589 27.7226C85.4205 27.7226 86.882 27.7226 88.3436 27.7226C90.5361 23.6838 92.7285 19.6449 94.921 15.6061C94.921 19.6449 94.921 23.6838 94.921 27.7226C96.4867 27.7226 98.0523 27.7226 99.618 27.7226C100.3097 25.2372 101.0013 22.7517 101.693 20.2663C101.093 20.2534 100.493 20.2404 99.893 20.2275C100.5843 16.9654 101.2757 13.7032 101.967 10.4411C98.3654 10.4411 94.7639 10.4411 91.1623 10.4411C89.6355 13.6644 88.1087 16.8877 86.5819 20.111C86.3079 20.111 86.0338 20.111 85.7598 20.111C84.233 16.8877 82.7061 13.6644 81.1793 10.4411C77.9691 10.4411 74.7589 10.4411 71.5487 10.4411ZM59.8823 23.8003C62.4662 23.8003 63.9538 23.7615 64.3453 23.6838C64.7368 23.6061 64.9717 23.2954 64.9717 22.7517C64.9717 22.0916 64.6976 21.6644 64.1104 21.509C63.5232 21.3537 62.1138 21.2372 59.8823 21.2372C55.4194 21.2372 52.6006 20.9265 51.4262 20.2663C50.2517 19.6061 49.6645 18.0139 49.6645 15.4896C49.6645 13.1207 50.4083 11.645 51.9351 10.9848C53.1096 10.4799 55.6934 10.2469 59.7257 10.2469C63.3274 10.2469 65.5981 10.3246 66.5376 10.5187C68.3385 10.8683 69.4347 12.1498 69.787 14.4022C66.4724 14.4022 63.1578 14.4022 59.8432 14.4022C59.804 14.4022 59.7649 14.4022 59.7257 14.4022C57.2985 14.4022 55.9283 14.4411 55.5368 14.5187C55.1453 14.5964 54.9887 14.9459 54.9887 15.4896C54.9887 16.0721 55.3019 16.4605 55.9283 16.6547C56.5547 16.8488 57.8466 16.9265 59.8432 16.9265C64.267 16.9265 67.0857 17.276 68.3776 17.975C69.6696 18.6741 70.2959 20.2663 70.2959 22.7517C70.2959 25.043 69.5913 26.5187 68.1427 27.1789C66.89 27.7226 64.1496 27.9945 59.804 27.9945C56.4764 27.9945 54.3232 27.9168 53.3445 27.7615C51.8176 27.5284 50.7606 27.0236 50.2125 26.1692C49.8602 25.6255 49.6253 24.8488 49.4687 23.8003C52.8747 23.8003 56.2806 23.8003 59.6866 23.8003C59.7518 23.8003 59.8171 23.8003 59.8823 23.8003ZM108.858 10.4411C111.9897 10.4411 115.1213 10.4411 118.253 10.4411C121.124 16.1886 123.995 21.9362 126.866 27.6838C124.778 27.6838 122.69 27.6838 120.602 27.6838C120.054 26.7129 119.506 25.7421 118.958 24.7712C115.4217 24.7712 111.8853 24.7712 108.349 24.7712C107.8007 25.7421 107.2523 26.7129 106.704 27.6838C104.6163 27.6838 102.5287 27.6838 100.441 27.6838C100.454 27.6579 100.467 27.632 100.48 27.6061C102.855 24.331 105.23 21.056 107.605 17.7809C106.522 17.7162 105.439 17.6514 104.356 17.5867C105.8567 15.2048 107.3573 12.8229 108.858 10.4411ZM114.025 14.3246C113.751 14.3246 113.477 14.3246 113.203 14.3246C112.2373 16.3181 111.2717 18.3116 110.306 20.3051C112.5113 20.3051 114.7167 20.3051 116.922 20.3051C115.9563 18.3116 114.9907 16.3181 114.025 14.3246ZM127.571 10.3634C132.7647 10.3634 137.9583 10.3634 143.152 10.3634C145.07 10.3634 146.441 10.7129 147.224 11.4119C148.085 12.1498 148.516 13.509 148.516 15.4119C148.516 16.8877 148.32 18.0139 147.967 18.7129C147.615 19.4119 146.989 19.9556 146.088 20.3051C147.067 20.7323 147.693 21.1595 148.007 21.5479C148.32 21.975 148.476 22.7129 148.476 23.8003C148.476 25.0948 148.476 26.3893 148.476 27.6838C146.6883 27.6838 144.9007 27.6838 143.113 27.6838C143.113 26.6482 143.113 25.6126 143.113 24.577C143.113 24.111 142.995 23.7615 142.761 23.4508C142.447 23.0624 141.978 22.8294 141.39 22.8294C138.5713 22.8294 135.7527 22.8294 132.934 22.8294C132.934 24.4346 132.934 26.0398 132.934 27.645C131.1463 27.645 129.3587 27.645 127.571 27.645C127.571 21.8845 127.571 16.1239 127.571 10.3634ZM132.895 14.8683C132.895 16.0463 132.895 17.2242 132.895 18.4022C135.766 18.4022 138.637 18.4022 141.508 18.4022C142.095 18.4022 142.526 18.2857 142.761 18.0139C142.995 17.7809 143.152 17.3149 143.152 16.6547C143.152 15.9945 143.035 15.5284 142.761 15.2566C142.487 14.9848 142.095 14.8683 141.508 14.8683C138.637 14.8683 135.766 14.8683 132.895 14.8683Z"/><path fill="#4878A6" stroke="none" fill-opacity="1" stroke-width="1" stroke-opacity="1" clip-rule="evenodd" fill-rule="evenodd" id="tSvg1282f0bbfb0" title="Path 3" d="M3.4296 14.1692C5.7002 12.8747 7.9709 11.5802 10.2415 10.2857C13.3212 8.5252 16.4009 6.7647 19.4806 5.0042C22.5603 6.7647 25.6401 8.5252 28.7198 10.2857C31.7995 12.0463 34.8792 13.8068 37.9589 15.5673C37.9589 17.6126 37.9589 19.6579 37.9589 21.7032C36.1711 20.6805 34.3833 19.6579 32.5955 18.6352C28.2239 16.1239 23.8522 13.6126 19.4806 11.1013C15.9181 13.1466 12.3555 15.1919 8.793 17.2372C7.0052 16.2145 5.2174 15.1919 3.4296 14.1692ZM1.0023 18.3246C1.0023 20.4217 1.0023 22.5187 1.0023 24.6158C7.2662 28.2016 13.53 31.7873 19.7938 35.3731C21.5425 34.2728 23.2911 33.1724 25.0398 32.0721C17.0273 27.4896 9.0148 22.9071 1.0023 18.3246Z"/><path fill="#2A5275" stroke="none" fill-opacity="1" stroke-width="1" stroke-opacity="1" clip-rule="evenodd" fill-rule="evenodd" id="tSvg2584b5add5" title="Path 4" d="M35.5317 38.0916C33.2611 39.3861 30.9904 40.6805 28.7198 41.975C25.6401 43.7355 22.5603 45.4961 19.4806 47.2566C16.4009 45.4961 13.3212 43.7355 10.2415 41.975C7.1618 40.2145 4.0821 38.454 1.0023 36.6935C1.0023 34.6482 1.0023 32.6029 1.0023 30.5576C2.7901 31.5802 4.5779 32.6029 6.3657 33.6255C10.7373 36.1239 15.109 38.6223 19.4806 41.1207C23.0432 39.0754 26.6057 37.0301 30.1683 34.9848C31.9561 36.0204 33.7439 37.056 35.5317 38.0916ZM23.9828 19.6061C22.5212 18.7647 21.0597 17.9233 19.5981 17.0819C17.8755 18.0657 16.153 19.0495 14.4304 20.0333C15.5266 20.6676 16.6227 21.3019 17.7189 21.9362C23.9827 25.522 30.2466 29.1077 36.5104 32.6935C37.0063 32.9783 37.5022 33.2631 37.9981 33.5479C37.9981 31.5673 37.9981 29.5867 37.9981 27.6061C37.5022 27.3213 37.0063 27.0366 36.5104 26.7518C32.3345 24.3699 28.1587 21.988 23.9828 19.6061Z"/></svg>