<svg width="24" height="24" viewBox="0 0 24 24" fill="none" xmlns="http://www.w3.org/2000/svg">
<path d="M12.0029 1.16772C12.1952 1.16772 12.3806 1.23483 12.5283 1.35522L12.5898 1.40991L22.583 11.4167L22.5928 11.4255H22.5918C22.728 11.5846 22.799 11.7896 22.791 11.9988C22.7829 12.2081 22.6969 12.4073 22.5488 12.5554C22.4007 12.7035 22.2015 12.7895 21.9922 12.7976C21.783 12.8056 21.578 12.7346 21.4189 12.5984L21.4092 12.5906L21.4102 12.5896L11.999 3.17261L2.58984 12.5837L2.58105 12.5925L2.58008 12.5916C2.42105 12.7277 2.21698 12.7998 2.00781 12.7917C1.7985 12.7837 1.59929 12.6967 1.45117 12.5486C1.30312 12.4005 1.21707 12.2012 1.20898 11.9919C1.20101 11.7828 1.27212 11.5787 1.4082 11.4197L1.41602 11.4099L1.5332 11.5271L1.41699 11.4099L11.417 1.40991L11.4775 1.35522C11.6252 1.23465 11.8106 1.16782 12.0029 1.16772Z" fill="#BFCBD6" stroke="#BFCBD6" stroke-width="0.33"/>
<path d="M18.502 13.4493C18.502 12.7085 19.398 12.3376 19.9219 12.8615C20.0776 13.0174 20.165 13.2289 20.165 13.4493V21.3331C20.165 21.7304 20.0074 22.1117 19.7266 22.3927C19.4456 22.6736 19.0643 22.8311 18.667 22.8312H15C14.3567 22.8312 13.8352 22.3103 13.835 21.6671V17.0001C13.835 16.539 13.4612 16.1652 13 16.1652H11C10.5388 16.1652 10.165 16.539 10.165 17.0001V21.6671C10.1648 22.3103 9.64325 22.8312 9 22.8312H5.33301C4.93574 22.8311 4.55435 22.6736 4.27344 22.3927C3.9926 22.1117 3.83496 21.7304 3.83496 21.3331V13.6095C3.83496 13.3891 3.92238 13.1775 4.07812 13.0216C4.60204 12.4977 5.49805 12.8686 5.49805 13.6095V21.1681H7.66699C8.128 21.1679 8.50195 20.7942 8.50195 20.3331V15.6671C8.50195 15.0237 9.02358 14.5021 9.66699 14.5021H14.333C14.9764 14.5021 15.498 15.0237 15.498 15.6671V20.3331C15.498 20.7942 15.872 21.1679 16.333 21.1681H18.502V13.4493Z" fill="#BFCBD6" stroke="#BFCBD6" stroke-width="0.33"/>
</svg>
